# Blender 4.0.2
# www.blender.org
mtllib cube.mtl
o Cube
v 1.000000 1.000000 -1.000000
v 1.000000 -1.000000 -1.000000
v 1.000000 1.000000 1.000000
v 1.000000 -1.000000 1.000000
v -1.000000 1.000000 -1.000000
v -1.000000 -1.000000 -1.000000
v -1.000000 1.000000 1.000000
v -1.000000 -1.000000 1.000000
vn -0.0000 1.0000 -0.0000
vn -0.0000 -0.0000 1.0000
vn -1.0000 -0.0000 -0.0000
vn -0.0000 -1.0000 -0.0000
vn 1.0000 -0.0000 -0.0000
vn -0.0000 -0.0000 -1.0000
vt 0.493604 0.695568
vt 0.493604 0.950004
vt 0.259214 0.950004
vt 0.259214 0.695568
vt 0.497312 0.335540
vt 0.501171 0.653904
vt 0.263803 0.658916
vt 0.259945 0.340553
vt 0.721599 0.350910
vt 0.723262 0.646463
vt 0.494629 0.648705
vt 0.492965 0.353152
vt 0.412666 0.138845
vt 0.412666 0.249852
vt 0.347570 0.249852
vt 0.347570 0.138845
vt 0.243099 0.353857
vt 0.238651 0.647911
vt 0.019507 0.651730
vt 0.023955 0.357676
vt 0.994728 0.358615
vt 0.992510 0.655811
vt 0.736717 0.652533
vt 0.738935 0.355336
s 0
usemtl sad
f 1/1/1 5/2/1 7/3/1 3/4/1
f 4/5/2 3/6/2 7/7/2 8/8/2
f 8/9/3 7/10/3 5/11/3 6/12/3
f 6/13/4 2/14/4 4/15/4 8/16/4
f 2/17/5 1/18/5 3/19/5 4/20/5
f 6/21/6 5/22/6 1/23/6 2/24/6
